<svg xmlns="http://www.w3.org/2000/svg" viewBox="0 0 212 212">
  <rect width="212" height="212" rx="34" fill="#f2eee6"/>
  <g fill="none" stroke-width="12" transform="translate(0 53)">
    <path d="M6 106 A100 100 0 0 1 206 106" stroke="#f3c6da"/>
    <path d="M18 106 A88 88 0 0 1 194 106" stroke="#b28b7a"/>
    <path d="M30 106 A76 76 0 0 1 182 106" stroke="#6cb392"/>
    <path d="M42 106 A64 64 0 0 1 170 106" stroke="#f5c542"/>
    <path d="M54 106 A52 52 0 0 1 158 106" stroke="#5b8fd4"/>
    <path d="M66 106 A40 40 0 0 1 146 106" stroke="#fd8fd0"/>
    <path d="M78 106 A28 28 0 0 1 134 106" stroke="#f8763f"/>
  </g>
</svg>
