<svg width="33" height="18" viewBox="0 0 33 18" fill="none" xmlns="http://www.w3.org/2000/svg">
<path d="M1.80331 8.48565C1.8084 8.47802 1.81094 8.46785 1.81603 8.46022C1.92283 8.35088 1.9864 8.21865 2.02963 8.07371C2.08812 8.03302 2.1288 7.98471 2.12626 7.91096C2.12626 7.90588 2.1288 7.90079 2.13389 7.89825C2.17966 7.88299 2.18983 7.84485 2.18983 7.80417L2.19237 7.80162C2.23815 7.79399 2.24069 7.76094 2.23815 7.72534C2.289 7.72025 2.289 7.68465 2.28646 7.64651C2.58143 7.13794 2.92218 6.65734 3.28073 6.192C4.37925 4.76801 5.6812 3.5627 7.18659 2.57861C8.7886 1.53096 10.5254 0.793536 12.3969 0.379052C13.5336 0.12731 14.683 -0.00237502 15.8476 0.00271067C16.2545 0.00525352 16.6613 0.00525352 17.0682 0.000167826C17.175 -0.00237502 17.2182 0.0230534 17.2157 0.140024C17.2081 0.694365 17.2081 1.24871 17.2055 1.80305C16.4452 1.81322 15.6823 1.7827 14.922 1.84373C14.4567 1.88187 13.9913 1.92256 13.5311 2.00139C13.1674 2.06496 12.8038 2.13362 12.4453 2.22516C12.0181 2.3345 11.5934 2.45402 11.1789 2.60659C10.6551 2.79984 10.1363 3.00836 9.63538 3.25755C8.9132 3.61864 8.22662 4.03821 7.5731 4.51118C7.08996 4.85955 6.63987 5.24352 6.20758 5.65037C5.68629 6.14114 5.20568 6.66751 4.76322 7.22948C4.50131 7.56259 4.26482 7.91859 4.02833 8.27459C3.68504 8.78825 3.3977 9.33496 3.12561 9.88421C2.92981 10.2809 2.76198 10.6928 2.61449 11.1099C2.46192 11.5345 2.33223 11.9668 2.22289 12.4042C2.06777 13.0348 1.94317 13.6705 1.87706 14.3164C1.82874 14.7945 1.7906 15.275 1.78297 15.7556C1.77534 16.2388 1.78043 16.7219 1.77789 17.2051C1.24134 17.2051 0.702248 17.2 0.165701 17.2076C0.0538146 17.2102 0.0131286 17.1669 0.00549994 17.0678C0.00295707 17.0347 0.00295707 16.9991 0.00295707 16.966C-0.00467156 15.837 -0.00975733 14.7055 0.168244 13.5815C0.267416 12.9585 0.386932 12.3381 0.54459 11.7278C0.641219 11.3489 0.76582 10.9776 0.903136 10.6115C0.913307 10.586 0.943822 10.5581 0.89805 10.5377C0.89805 10.5301 0.900593 10.5225 0.905679 10.5148C0.946365 10.497 0.953993 10.4589 0.964165 10.4233C1.02011 10.2453 1.10657 10.08 1.17014 9.90456C1.2566 9.66807 1.37357 9.4443 1.47274 9.2129C1.53885 9.06033 1.65328 8.93065 1.666 8.75519C1.7372 8.6789 1.79823 8.59499 1.80331 8.48565Z" fill="#E8463B"></path>
<path d="M1.77476 17.205C1.77476 16.7219 1.77222 16.2388 1.77985 15.7556C1.78747 15.275 1.82562 14.797 1.87393 14.3164C1.9375 13.6679 2.06465 13.0322 2.21976 12.4041C2.32656 11.9668 2.45879 11.5319 2.61137 11.1098C2.75885 10.6928 2.92668 10.2809 3.12249 9.88418C3.39712 9.33239 3.68192 8.78822 4.02521 8.27456C4.26169 7.91856 4.49564 7.56257 4.7601 7.22945C5.20256 6.66748 5.68316 6.14111 6.20445 5.65035C6.63674 5.24349 7.08937 4.85952 7.56998 4.51115C8.22604 4.03818 8.91007 3.61861 9.63225 3.25753C10.1332 3.00833 10.6519 2.79981 11.1758 2.60656C11.5903 2.45399 12.0149 2.33447 12.4421 2.22513C12.8007 2.13359 13.1618 2.06493 13.5279 2.00136C13.9882 1.91999 14.4535 1.88185 14.9189 1.8437C15.6792 1.78268 16.4421 1.81319 17.2024 1.80302C17.2024 1.82082 17.2049 1.83608 17.2049 1.85388C17.1668 1.89202 17.1846 1.94288 17.1846 1.9861C17.1846 2.48704 17.1795 2.98544 17.1871 3.48638C17.1897 3.60844 17.149 3.63133 17.0371 3.63387C16.2259 3.6415 15.4122 3.59318 14.6036 3.68218C14.2577 3.72032 13.9119 3.76864 13.5686 3.8373C13.1185 3.9263 12.671 4.02801 12.2336 4.17041C11.9412 4.26449 11.6488 4.36367 11.364 4.47555C11.0868 4.58235 10.8121 4.70441 10.5426 4.82901C10.3392 4.92309 10.1408 5.02481 9.95011 5.13923C9.63479 5.32486 9.31693 5.5054 9.01942 5.719C8.61764 6.0038 8.21587 6.28351 7.84715 6.609C7.49115 6.92177 7.15803 7.25488 6.83509 7.59817C6.67489 7.76599 6.51214 7.93382 6.37483 8.11945C6.1714 8.39662 5.95271 8.66616 5.75691 8.95096C5.54076 9.26373 5.34242 9.58667 5.15424 9.91216C5.02456 10.1359 4.91267 10.3724 4.80078 10.6089C4.66093 10.9039 4.52361 11.2014 4.40918 11.5065C4.23118 11.9871 4.07098 12.4753 3.94892 12.9763C3.88026 13.256 3.82178 13.5408 3.77092 13.8256C3.7404 13.996 3.7404 14.1689 3.70989 14.3393C3.6514 14.6546 3.63106 14.975 3.61835 15.2928C3.59292 15.9387 3.63869 16.5871 3.58783 17.2356C3.48612 17.2508 3.38186 17.2228 3.28269 17.2534C3.26743 17.2534 3.25217 17.2534 3.23437 17.2534C3.21657 17.2432 3.19623 17.2406 3.17843 17.2534C3.16317 17.2534 3.15046 17.2534 3.1352 17.2534C2.68511 17.2279 2.23502 17.2381 1.78493 17.2483L1.78239 17.2406C1.77476 17.2228 1.77476 17.2127 1.77476 17.205Z" fill="#F4961B"></path>
<path d="M3.58289 17.2253C3.63374 16.5794 3.58797 15.931 3.6134 15.2826C3.62611 14.9647 3.64646 14.6443 3.70494 14.329C3.73546 14.1586 3.73546 13.9857 3.76597 13.8153C3.81683 13.5305 3.87532 13.2483 3.94397 12.966C4.06603 12.4676 4.22623 11.9794 4.40424 11.4963C4.51612 11.1911 4.65344 10.8936 4.79584 10.5986C4.90772 10.3621 5.01961 10.1257 5.1493 9.9019C5.33747 9.57387 5.53582 9.25093 5.75196 8.9407C5.94776 8.6559 6.16645 8.3889 6.36988 8.10919C6.50719 7.92356 6.67248 7.75573 6.83014 7.5879C7.15309 7.24462 7.48875 6.91151 7.84221 6.59874C8.21092 6.27325 8.61524 5.99354 9.01447 5.70874C9.31453 5.49768 9.63239 5.3146 9.94517 5.12897C10.1384 5.01709 10.3368 4.91283 10.5377 4.81874C10.8072 4.69415 11.0818 4.57209 11.359 4.46529C11.6463 4.3534 11.9362 4.25678 12.2287 4.16015C12.666 4.01775 13.1136 3.91603 13.5637 3.82703C13.907 3.75838 14.2528 3.71006 14.5986 3.67192C15.4073 3.58292 16.221 3.63124 17.0322 3.62361C17.1441 3.62361 17.1847 3.59818 17.1822 3.47612C17.1746 2.97518 17.1797 2.47678 17.1797 1.97584C17.1797 1.93007 17.1619 1.88176 17.2 1.84361C17.2025 1.88939 17.2102 1.93516 17.2102 1.98093C17.2178 2.63953 17.2153 3.30067 17.2153 3.95926C17.2153 4.44749 17.2331 4.93826 17.2 5.42903C16.1269 5.43157 15.0513 5.3858 13.9883 5.59686C13.6857 5.65788 13.3857 5.71637 13.0882 5.80028C12.394 5.99354 11.7252 6.25037 11.0844 6.57839C10.3012 6.98016 9.58153 7.47093 8.92293 8.05325C8.37875 8.53384 7.88798 9.06276 7.46077 9.64761C6.96746 10.3189 6.54534 11.0335 6.22748 11.809C5.9681 12.4397 5.76467 13.0855 5.62482 13.7543C5.4875 14.4129 5.41376 15.0791 5.40867 15.753C5.40613 16.0759 5.41121 16.3963 5.40867 16.7193C5.40613 16.8744 5.42139 17.032 5.3985 17.1871C5.37307 17.2202 5.33747 17.2227 5.29678 17.2227C4.72718 17.2278 4.15503 17.2278 3.58289 17.2253Z" fill="#FCC012"></path>
<path d="M5.40131 17.1948C5.42673 17.0397 5.41148 16.882 5.41402 16.7244C5.41656 16.4014 5.41402 16.081 5.41402 15.7581C5.41911 15.0842 5.49285 14.418 5.63017 13.7594C5.77002 13.0906 5.976 12.4473 6.23283 11.8141C6.55069 11.0386 6.97281 10.324 7.46612 9.6527C7.89333 9.06784 8.3841 8.53893 8.92828 8.05834C9.58688 7.47602 10.3065 6.98525 11.0897 6.58348C11.7305 6.25546 12.3993 5.99863 13.0935 5.80537C13.391 5.72146 13.6911 5.66043 13.9937 5.60195C15.0566 5.39089 16.1323 5.43666 17.2053 5.43412C17.2181 6.03677 17.2206 6.63943 17.2028 7.24208C16.7375 7.24208 16.2721 7.23191 15.8068 7.24717C15.4736 7.25734 15.1405 7.27514 14.81 7.31582C14.2709 7.38194 13.7445 7.49382 13.2283 7.65911C12.5086 7.88796 11.8297 8.20836 11.1965 8.61776C10.6345 8.98139 10.1158 9.39841 9.653 9.88156C9.17748 10.3749 8.77062 10.9216 8.4197 11.5115C8.01284 12.1981 7.71533 12.9279 7.51444 13.6984C7.40001 14.1357 7.31355 14.5807 7.27795 15.0283C7.22201 15.7581 7.22201 16.4904 7.24489 17.2228C7.23472 17.2253 7.22455 17.2278 7.21438 17.2304C7.19149 17.2329 7.17115 17.2355 7.14826 17.238C7.13046 17.238 7.11266 17.238 7.09486 17.238C6.75666 17.2202 6.421 17.2202 6.0828 17.238C6.0472 17.238 6.0116 17.238 5.976 17.238C5.96837 17.238 5.96074 17.238 5.95057 17.238C5.81325 17.238 5.67848 17.238 5.54116 17.2355C5.53354 17.2278 5.52591 17.2278 5.51828 17.2355C5.50048 17.2355 5.48268 17.2355 5.46488 17.238C5.44199 17.2253 5.42165 17.21 5.40131 17.1948Z" fill="#50B051"></path>
<path d="M7.23947 17.2253C7.21658 16.493 7.21658 15.7607 7.27253 15.0283C7.30813 14.5808 7.39459 14.1358 7.50902 13.6984C7.71245 12.9254 8.00996 12.1981 8.41428 11.5116C8.76265 10.9216 9.17206 10.3749 9.64758 9.8816C10.1104 9.39846 10.6291 8.97889 11.1911 8.61781C11.8243 8.20841 12.5032 7.88801 13.2229 7.65915C13.7391 7.49641 14.2654 7.38198 14.8045 7.31587C15.1376 7.27518 15.4708 7.25738 15.8013 7.24721C16.2667 7.23196 16.732 7.24213 17.1974 7.24213C17.1999 7.71764 17.205 8.19315 17.205 8.67121C17.205 8.80598 17.2177 8.94075 17.1974 9.07552C16.5184 9.08315 15.8369 9.04501 15.158 9.11366C14.5782 9.17215 14.0188 9.30183 13.4771 9.50272C12.6227 9.82057 11.865 10.2885 11.1987 10.914C10.6113 11.4658 10.1333 12.099 9.77218 12.8186C9.55095 13.2585 9.38312 13.7162 9.26106 14.1917C9.139 14.6622 9.06526 15.1428 9.05 15.6259C9.0322 16.1599 9.04746 16.6939 9.04746 17.2253C9.05 17.2304 9.05 17.233 9.04746 17.2381C8.9254 17.2355 8.80334 17.2304 8.68128 17.2304C8.20068 17.2304 7.72007 17.2279 7.23947 17.2253Z" fill="#438FCC"></path>
<path d="M9.05064 17.2279C9.05064 16.6939 9.03538 16.1599 9.05318 15.6284C9.06844 15.1453 9.14473 14.6647 9.26424 14.1942C9.3863 13.7187 9.55413 13.261 9.77536 12.8211C10.1365 12.0989 10.6145 11.4683 11.2019 10.9165C11.8656 10.291 12.6259 9.82309 13.4803 9.50524C14.0245 9.30435 14.5839 9.17467 15.1612 9.11618C15.8401 9.04498 16.5216 9.08567 17.2006 9.07804C17.2031 9.0933 17.2031 9.10855 17.2057 9.12381C17.1751 9.14924 17.1777 9.17467 17.2057 9.2001C17.2057 9.76715 17.2184 10.3342 17.198 10.8987C16.8725 10.8987 16.547 10.8962 16.2216 10.9038C15.8808 10.9114 15.5375 10.8784 15.1968 10.9292C15.0645 10.9496 14.9349 10.9801 14.8052 11.0004C14.6323 11.0284 14.4619 11.0767 14.2966 11.125C14.0703 11.1937 13.8592 11.303 13.6431 11.4047C13.1854 11.6209 12.7785 11.9082 12.4149 12.2566C12.1504 12.5083 11.9088 12.7855 11.7054 13.0907C11.6139 13.2305 11.5172 13.3704 11.4435 13.5204C11.3189 13.7798 11.2019 14.0417 11.1129 14.3163C10.9985 14.6672 10.912 15.0232 10.8841 15.3868C10.8586 15.7301 10.8485 16.0785 10.8485 16.4243C10.8485 16.6939 10.8968 16.9634 10.851 17.2304C10.7493 17.2329 10.6476 17.2355 10.5484 17.2406C10.378 17.2406 10.2077 17.2431 10.0373 17.2431C9.75756 17.2431 9.47784 17.2431 9.19813 17.2431C9.18287 17.2431 9.16761 17.2431 9.14981 17.2431C9.11676 17.2355 9.0837 17.2329 9.05064 17.2279Z" fill="#4254A1"></path>
<path d="M10.8506 17.2278C10.8964 16.9582 10.8481 16.6887 10.8481 16.4217C10.8481 16.0759 10.8583 15.7275 10.8837 15.3842C10.9117 15.0206 10.9981 14.662 11.1125 14.3137C11.2015 14.039 11.3185 13.7771 11.4431 13.5178C11.5169 13.3677 11.6109 13.2279 11.705 13.088C11.9085 12.7829 12.15 12.5057 12.4145 12.254C12.7781 11.9056 13.185 11.6183 13.6427 11.4021C13.8588 11.3004 14.0699 11.1911 14.2962 11.1224C14.4615 11.0741 14.6293 11.0232 14.8048 10.9978C14.9345 10.9775 15.0667 10.9469 15.1964 10.9266C15.5371 10.8757 15.8804 10.9088 16.2212 10.9012C16.5467 10.8961 16.8722 10.8986 17.1976 10.8961C17.2231 11.0639 17.2078 11.2343 17.2078 11.4021C17.2104 11.7912 17.2053 12.1802 17.2104 12.5718C17.2129 12.6761 17.1849 12.7091 17.0756 12.7091C16.6738 12.704 16.272 12.7066 15.8703 12.7066C15.0387 12.7066 14.3115 12.9787 13.6936 13.5381C13.4672 13.7441 13.274 13.978 13.1316 14.2526C13.124 14.2628 13.1189 14.273 13.1112 14.2832C13.1011 14.301 13.0909 14.3188 13.0833 14.334C13.0324 14.3925 12.9994 14.4612 12.9816 14.5374C12.9765 14.54 12.9739 14.5451 12.9765 14.5502C12.9714 14.5629 12.9638 14.5756 12.9587 14.5883C12.9536 14.5934 12.951 14.5985 12.9536 14.6061C12.9154 14.6544 12.89 14.7053 12.8849 14.7688C12.8824 14.7816 12.8773 14.7943 12.8748 14.807C12.8697 14.8197 12.8646 14.8324 12.857 14.8451C12.8519 14.8502 12.8493 14.8553 12.8519 14.8629C12.8214 14.9036 12.8086 14.9468 12.8086 14.9977C12.8061 15.0053 12.8061 15.0155 12.8036 15.0231C12.7654 15.0867 12.7476 15.1554 12.7527 15.2291C12.7476 15.2545 12.74 15.2825 12.7349 15.3079C12.7196 15.3232 12.7171 15.3384 12.7273 15.3562C12.7095 15.3893 12.7069 15.4249 12.7095 15.4605C12.6942 15.4834 12.6866 15.5063 12.7018 15.5342C12.6891 15.5851 12.679 15.6385 12.6866 15.6919C12.6815 15.7504 12.6764 15.8089 12.6739 15.8674C12.6739 16.2818 12.6739 16.6963 12.6739 17.1108C12.6739 17.1693 12.6866 17.2354 12.6027 17.2507C12.4069 17.2507 12.2085 17.2507 12.0127 17.2507C12.0051 17.2456 12 17.2456 11.9924 17.2507C11.9568 17.2507 11.9237 17.2507 11.8881 17.2507C11.7966 17.2379 11.705 17.2379 11.6109 17.2507C11.4813 17.2507 11.3516 17.2507 11.2219 17.2507C11.2066 17.2507 11.1939 17.2507 11.1787 17.2507C11.082 17.2507 10.9879 17.2507 10.8913 17.2507C10.8837 17.2456 10.8786 17.2456 10.871 17.2507C10.8684 17.2379 10.8608 17.2329 10.8506 17.2278Z" fill="#833F91"></path>
<path d="M30.6368 8.48565C30.6317 8.47802 30.6292 8.46785 30.6241 8.46022C30.5173 8.35088 30.4537 8.21865 30.4105 8.07371C30.352 8.03302 30.3113 7.98471 30.3139 7.91097C30.3139 7.90588 30.3113 7.9008 30.3062 7.89825C30.2605 7.883 30.2503 7.84485 30.2503 7.80417L30.2477 7.80162C30.202 7.794 30.1994 7.76094 30.202 7.72534C30.1511 7.72025 30.1511 7.68465 30.1537 7.64651C29.8587 7.13794 29.5179 6.65734 29.1594 6.192C28.0609 4.76801 26.7589 3.5627 25.2535 2.57862C23.6515 1.53096 21.9147 0.793538 20.0431 0.379054C18.9064 0.127312 17.7571 -0.00237311 16.5924 0.00271258C16.1856 0.00525543 15.7787 0.00525543 15.3718 0.000169733C15.265 -0.00237311 15.2218 0.0230554 15.2243 0.140026C15.232 0.694367 15.232 1.24871 15.2345 1.80305C15.9948 1.81322 16.7577 1.78271 17.518 1.84373C17.9834 1.88188 18.4487 1.92256 18.909 2.00139C19.2726 2.06496 19.6363 2.13362 19.9948 2.22516C20.422 2.3345 20.8467 2.45402 21.2612 2.60659C21.785 2.79984 22.3038 3.00836 22.8047 3.25756C23.5269 3.61864 24.2135 4.03821 24.867 4.51118C25.3501 4.85955 25.8002 5.24352 26.2325 5.65038C26.7538 6.14114 27.2344 6.66751 27.6769 7.22948C27.9388 7.5626 28.1753 7.9186 28.4118 8.27459C28.7551 8.78825 29.0424 9.33496 29.3145 9.88422C29.5103 10.2809 29.6781 10.6928 29.8256 11.1099C29.9782 11.5345 30.1079 11.9668 30.2172 12.4042C30.3723 13.0348 30.4969 13.6705 30.5631 14.3164C30.6114 14.7945 30.6495 15.2751 30.6571 15.7556C30.6648 16.2388 30.6597 16.7219 30.6622 17.2051C31.1988 17.2051 31.7379 17.2 32.2744 17.2076C32.3863 17.2102 32.427 17.1669 32.4346 17.0678C32.4372 17.0347 32.4372 16.9991 32.4372 16.966C32.4448 15.837 32.4499 14.7055 32.2719 13.5815C32.1727 12.9585 32.0532 12.3381 31.8955 11.7278C31.7989 11.3489 31.6743 10.9776 31.537 10.6115C31.5268 10.586 31.4963 10.5581 31.5421 10.5377C31.5421 10.5301 31.5395 10.5225 31.5344 10.5148C31.4938 10.497 31.4861 10.4589 31.476 10.4233C31.42 10.2453 31.3336 10.08 31.27 9.90456C31.1835 9.66807 31.0665 9.4443 30.9674 9.2129C30.9013 9.06033 30.7868 8.93065 30.7741 8.75519C30.7029 8.67891 30.6419 8.59499 30.6368 8.48565Z" fill="#E8463B"></path>
<path d="M30.6654 17.205C30.6654 16.7219 30.6679 16.2388 30.6603 15.7556C30.6527 15.275 30.6145 14.797 30.5662 14.3164C30.5026 13.6679 30.3755 13.0322 30.2204 12.4041C30.1136 11.9668 29.9813 11.532 29.8288 11.1098C29.6813 10.6928 29.5134 10.2809 29.3176 9.88419C29.043 9.33239 28.7582 8.78822 28.4149 8.27456C28.1784 7.91857 27.9445 7.56257 27.68 7.22945C27.2375 6.66748 26.7569 6.14112 26.2356 5.65035C25.8034 5.24349 25.3507 4.85952 24.8701 4.51115C24.2141 4.03818 23.53 3.61861 22.8078 3.25753C22.3069 3.00833 21.7881 2.79981 21.2643 2.60656C20.8498 2.45399 20.4251 2.33447 19.9979 2.22513C19.6394 2.13359 19.2783 2.06493 18.9121 2.00136C18.4519 1.91999 17.9865 1.88185 17.5212 1.8437C16.7608 1.78268 15.998 1.81319 15.2376 1.80302C15.2376 1.82082 15.2351 1.83608 15.2351 1.85388C15.2732 1.89202 15.2554 1.94288 15.2554 1.9861C15.2554 2.48704 15.2605 2.98544 15.2529 3.48638C15.2504 3.60844 15.291 3.63133 15.4029 3.63387C16.2141 3.6415 17.0278 3.59318 17.8365 3.68218C18.1823 3.72033 18.5281 3.76864 18.8714 3.8373C19.3215 3.9263 19.7691 4.02801 20.2065 4.17041C20.4989 4.26449 20.7913 4.36367 21.0761 4.47555C21.3533 4.58235 21.6279 4.70441 21.8975 4.82901C22.1009 4.92309 22.2993 5.02481 22.49 5.13923C22.8053 5.32486 23.1232 5.5054 23.4207 5.719C23.8224 6.0038 24.2242 6.28352 24.5929 6.609C24.9489 6.92177 25.2821 7.25488 25.605 7.59817C25.7652 7.76599 25.928 7.93382 26.0653 8.11945C26.2687 8.39662 26.4874 8.66616 26.6832 8.95096C26.8993 9.26373 27.0977 9.58667 27.2859 9.91216C27.4156 10.1359 27.5274 10.3724 27.6393 10.6089C27.7792 10.9039 27.9165 11.2014 28.0309 11.5065C28.2089 11.9871 28.3691 12.4753 28.4912 12.9763C28.5599 13.256 28.6183 13.5408 28.6692 13.8256C28.6997 13.996 28.6997 14.1689 28.7302 14.3393C28.7887 14.6546 28.8091 14.975 28.8218 15.2928C28.8472 15.9387 28.8014 16.5871 28.8523 17.2356C28.954 17.2508 29.0583 17.2228 29.1574 17.2534C29.1727 17.2534 29.1879 17.2534 29.2057 17.2534C29.2235 17.2432 29.2439 17.2406 29.2617 17.2534C29.2769 17.2534 29.2897 17.2534 29.3049 17.2534C29.755 17.2279 30.2051 17.2381 30.6552 17.2483L30.6577 17.2406C30.6654 17.2228 30.6654 17.2127 30.6654 17.205Z" fill="#F4961B"></path>
<path d="M28.8572 17.2253C28.8064 16.5794 28.8522 15.931 28.8267 15.2826C28.814 14.9647 28.7937 14.6443 28.7352 14.329C28.7047 14.1586 28.7047 13.9857 28.6742 13.8153C28.6233 13.5305 28.5648 13.2483 28.4961 12.966C28.3741 12.4676 28.2139 11.9794 28.0359 11.4963C27.924 11.1911 27.7867 10.8936 27.6443 10.5986C27.5324 10.3622 27.4205 10.1257 27.2908 9.9019C27.1026 9.57387 26.9043 9.25093 26.6882 8.9407C26.4924 8.6559 26.2737 8.3889 26.0702 8.10919C25.9329 7.92356 25.7676 7.75574 25.61 7.58791C25.287 7.24462 24.9514 6.91151 24.5979 6.59874C24.2292 6.27326 23.8249 5.99354 23.4256 5.70874C23.1256 5.49769 22.8077 5.3146 22.4949 5.12897C22.3017 5.01709 22.1033 4.91283 21.9024 4.81875C21.6329 4.69415 21.3583 4.57209 21.0811 4.46529C20.7937 4.35341 20.5038 4.25678 20.2114 4.16015C19.774 4.01775 19.3265 3.91604 18.8764 3.82704C18.5331 3.75838 18.1873 3.71007 17.8414 3.67192C17.0328 3.58292 16.2191 3.63124 15.4079 3.62361C15.296 3.62361 15.2553 3.59818 15.2579 3.47612C15.2655 2.97518 15.2604 2.47679 15.2604 1.97584C15.2604 1.93007 15.2782 1.88176 15.2401 1.84362C15.2375 1.88939 15.2299 1.93516 15.2299 1.98093C15.2223 2.63953 15.2248 3.30067 15.2248 3.95926C15.2248 4.44749 15.207 4.93826 15.2401 5.42903C16.3132 5.43157 17.3888 5.3858 18.4517 5.59686C18.7543 5.65789 19.0544 5.71637 19.3519 5.80029C20.0461 5.99354 20.7149 6.25037 21.3557 6.5784C22.1389 6.98017 22.8586 7.47094 23.5172 8.05325C24.0613 8.53385 24.5521 9.06276 24.9793 9.64761C25.4727 10.3189 25.8948 11.0335 26.2126 11.809C26.472 12.4397 26.6754 13.0855 26.8153 13.7543C26.9526 14.4129 27.0264 15.0791 27.0314 15.753C27.034 16.0759 27.0289 16.3963 27.0314 16.7193C27.034 16.8744 27.0187 17.032 27.0416 17.1872C27.067 17.2202 27.1026 17.2228 27.1433 17.2228C27.7129 17.2278 28.2851 17.2278 28.8572 17.2253Z" fill="#FCC012"></path>
<path d="M27.0388 17.1948C27.0134 17.0397 27.0286 16.882 27.0261 16.7244C27.0236 16.4014 27.0261 16.081 27.0261 15.7581C27.021 15.0842 26.9473 14.418 26.81 13.7594C26.6701 13.0906 26.4641 12.4473 26.2073 11.8141C25.8894 11.0386 25.4673 10.324 24.974 9.6527C24.5468 9.06785 24.056 8.53893 23.5118 8.05834C22.8532 7.47602 22.1336 6.98525 21.3504 6.58348C20.7096 6.25546 20.0408 5.99863 19.3466 5.80537C19.0491 5.72146 18.749 5.66043 18.4464 5.60195C17.3835 5.39089 16.3078 5.43666 15.2347 5.43412C15.222 6.03677 15.2195 6.63943 15.2373 7.24208C15.7026 7.24208 16.168 7.23191 16.6333 7.24717C16.9664 7.25734 17.2995 7.27514 17.6301 7.31582C18.1692 7.38194 18.6956 7.49382 19.2118 7.65911C19.9314 7.88796 20.6104 8.20836 21.2436 8.61776C21.8055 8.98139 22.3243 9.39842 22.7871 9.88156C23.2626 10.3749 23.6695 10.9216 24.0204 11.5115C24.4273 12.1981 24.7248 12.9279 24.9257 13.6984C25.0401 14.1357 25.1266 14.5807 25.1622 15.0283C25.2181 15.7581 25.2181 16.4904 25.1952 17.2228C25.2054 17.2253 25.2156 17.2278 25.2257 17.2304C25.2486 17.2329 25.269 17.2355 25.2919 17.238C25.3097 17.238 25.3275 17.238 25.3453 17.238C25.6835 17.2202 26.0191 17.2202 26.3573 17.238C26.3929 17.238 26.4285 17.238 26.4641 17.238C26.4718 17.238 26.4794 17.238 26.4896 17.238C26.6269 17.238 26.7616 17.238 26.899 17.2355C26.9066 17.2278 26.9142 17.2278 26.9218 17.2355C26.9396 17.2355 26.9574 17.2355 26.9752 17.238C26.9981 17.2253 27.0185 17.21 27.0388 17.1948Z" fill="#50B051"></path>
<path d="M25.2006 17.2253C25.2235 16.493 25.2235 15.7607 25.1675 15.0283C25.1319 14.5808 25.0455 14.1358 24.931 13.6984C24.7276 12.9254 24.4301 12.1981 24.0258 11.5116C23.6774 10.9216 23.268 10.3749 22.7925 9.8816C22.3297 9.39846 21.8109 8.97889 21.2489 8.61781C20.6158 8.20841 19.9368 7.88801 19.2172 7.65916C18.701 7.49641 18.1746 7.38199 17.6355 7.31587C17.3024 7.27519 16.9693 7.25739 16.6387 7.24721C16.1733 7.23196 15.708 7.24213 15.2426 7.24213C15.2401 7.71764 15.235 8.19315 15.235 8.67121C15.235 8.80598 15.2223 8.94075 15.2426 9.07552C15.9216 9.08315 16.6031 9.04501 17.282 9.11366C17.8618 9.17215 18.4212 9.30183 18.9629 9.50272C19.8173 9.82058 20.5751 10.2885 21.2413 10.914C21.8287 11.4658 22.3068 12.099 22.6679 12.8186C22.8891 13.2585 23.0569 13.7162 23.179 14.1917C23.3011 14.6622 23.3748 15.1428 23.3901 15.6259C23.4079 16.1599 23.3926 16.6939 23.3926 17.2253C23.3901 17.2304 23.3901 17.233 23.3926 17.2381C23.5147 17.2355 23.6367 17.2304 23.7588 17.2304C24.2394 17.2304 24.72 17.2279 25.2006 17.2253Z" fill="#438FCC"></path>
<path d="M23.3894 17.2279C23.3894 16.6939 23.4047 16.1599 23.3869 15.6284C23.3716 15.1453 23.2953 14.6647 23.1758 14.1942C23.0538 13.7187 22.8859 13.261 22.6647 12.8211C22.3036 12.0989 21.8255 11.4683 21.2381 10.9165C20.5744 10.291 19.8141 9.8231 18.9597 9.50524C18.4155 9.30436 17.8561 9.17467 17.2789 9.11618C16.5999 9.04499 15.9184 9.08567 15.2395 9.07804C15.2369 9.0933 15.2369 9.10856 15.2344 9.12381C15.2649 9.14924 15.2623 9.17467 15.2344 9.2001C15.2344 9.76715 15.2217 10.3342 15.242 10.8987C15.5675 10.8987 15.893 10.8962 16.2185 10.9038C16.5592 10.9114 16.9025 10.8784 17.2433 10.9292C17.3755 10.9496 17.5052 10.9801 17.6349 11.0004C17.8078 11.0284 17.9782 11.0767 18.1434 11.125C18.3698 11.1937 18.5808 11.303 18.797 11.4047C19.2547 11.6209 19.6615 11.9082 20.0252 12.2566C20.2896 12.5083 20.5312 12.7855 20.7346 13.0907C20.8262 13.2305 20.9228 13.3704 20.9966 13.5204C21.1212 13.7798 21.2381 14.0417 21.3271 14.3163C21.4416 14.6672 21.528 15.0232 21.556 15.3868C21.5814 15.7301 21.5916 16.0785 21.5916 16.4243C21.5916 16.6939 21.5433 16.9634 21.5891 17.2304C21.6908 17.233 21.7925 17.2355 21.8917 17.2406C22.062 17.2406 22.2324 17.2431 22.4028 17.2431C22.6825 17.2431 22.9622 17.2431 23.2419 17.2431C23.2572 17.2431 23.2724 17.2431 23.2902 17.2431C23.3233 17.2355 23.3564 17.233 23.3894 17.2279Z" fill="#4254A1"></path>
<path d="M21.5894 17.2278C21.5437 16.9582 21.592 16.6887 21.592 16.4217C21.592 16.0759 21.5818 15.7275 21.5564 15.3842C21.5284 15.0206 21.4419 14.662 21.3275 14.3137C21.2385 14.039 21.1215 13.7771 20.9969 13.5178C20.9232 13.3677 20.8291 13.2279 20.735 13.088C20.5316 12.7829 20.29 12.5057 20.0256 12.254C19.6619 11.9056 19.2551 11.6183 18.7973 11.4021C18.5812 11.3004 18.3701 11.1911 18.1438 11.1224C17.9785 11.0741 17.8107 11.0232 17.6352 10.9978C17.5056 10.9775 17.3733 10.9469 17.2436 10.9266C16.9029 10.8757 16.5596 10.9088 16.2189 10.9012C15.8934 10.8961 15.5679 10.8986 15.2424 10.8961C15.217 11.0639 15.2322 11.2343 15.2322 11.4021C15.2297 11.7912 15.2348 12.1802 15.2297 12.5718C15.2271 12.6761 15.2551 12.7091 15.3644 12.7091C15.7662 12.7041 16.168 12.7066 16.5698 12.7066C17.4013 12.7066 18.1286 12.9787 18.7465 13.5381C18.9728 13.7441 19.1661 13.978 19.3085 14.2526C19.3161 14.2628 19.3212 14.273 19.3288 14.2832C19.339 14.301 19.3492 14.3188 19.3568 14.334C19.4076 14.3925 19.4407 14.4612 19.4585 14.5374C19.4636 14.54 19.4661 14.5451 19.4636 14.5502C19.4687 14.5629 19.4763 14.5756 19.4814 14.5883C19.4865 14.5934 19.489 14.5985 19.4865 14.6061C19.5246 14.6544 19.55 14.7053 19.5551 14.7688C19.5577 14.7816 19.5628 14.7943 19.5653 14.807C19.5704 14.8197 19.5755 14.8324 19.5831 14.8451C19.5882 14.8502 19.5907 14.8553 19.5882 14.8629C19.6187 14.9036 19.6314 14.9468 19.6314 14.9977C19.634 15.0053 19.634 15.0155 19.6365 15.0231C19.6746 15.0867 19.6924 15.1554 19.6874 15.2291C19.6924 15.2545 19.7001 15.2825 19.7052 15.3079C19.7204 15.3232 19.723 15.3384 19.7128 15.3562C19.7306 15.3893 19.7331 15.4249 19.7306 15.4605C19.7458 15.4834 19.7535 15.5063 19.7382 15.5342C19.7509 15.5851 19.7611 15.6385 19.7535 15.6919C19.7586 15.7504 19.7636 15.8089 19.7662 15.8674C19.7662 16.2818 19.7662 16.6963 19.7662 17.1108C19.7662 17.1693 19.7535 17.2354 19.8374 17.2507C20.0332 17.2507 20.2315 17.2507 20.4273 17.2507C20.435 17.2456 20.4401 17.2456 20.4477 17.2507C20.4833 17.2507 20.5163 17.2507 20.5519 17.2507C20.6435 17.2379 20.735 17.2379 20.8291 17.2507C20.9588 17.2507 21.0885 17.2507 21.2182 17.2507C21.2334 17.2507 21.2461 17.2507 21.2614 17.2507C21.358 17.2507 21.4521 17.2507 21.5488 17.2507C21.5564 17.2456 21.5615 17.2456 21.5691 17.2507C21.5716 17.2379 21.5793 17.2329 21.5894 17.2278Z" fill="#833F91"></path>
</svg>